<?xml version="1.0" standalone="no"?>
<!DOCTYPE svg PUBLIC "-//W3C//DTD SVG 20010904//EN"
 "http://www.w3.org/TR/2001/REC-SVG-20010904/DTD/svg10.dtd">
<svg version="1.0" xmlns="http://www.w3.org/2000/svg"
 width="70.000000pt" height="70.000000pt" viewBox="0 0 70.000000 70.000000"
 preserveAspectRatio="xMidYMid meet">
<metadata>
Created by potrace 1.11, written by Peter Selinger 2001-2013
</metadata>
<g transform="translate(0.000000,70.000000) scale(0.100000,-0.100000)"
fill="#000000" stroke="none">
<path d="M240 492 c0 -68 -5 -77 -34 -57 -27 20 -86 19 -114 -1 -49 -34 -67
-116 -37 -174 28 -55 105 -76 165 -45 50 26 60 59 60 205 0 123 -1 130 -20
130 -18 0 -20 -7 -20 -58z m-25 -113 c45 -44 10 -132 -54 -132 -46 0 -71 28
-71 78 0 76 70 107 125 54z"/>
<path d="M442 533 c-54 -26 -85 -76 -90 -143 -8 -106 52 -180 152 -188 76 -6
156 39 121 68 -12 10 -20 9 -40 -4 -13 -9 -45 -16 -71 -16 -39 0 -51 5 -80 34
-31 31 -34 40 -34 91 0 51 3 60 34 91 29 29 41 34 83 34 28 0 58 -7 71 -16 18
-13 26 -13 38 -4 11 10 12 16 2 27 -35 43 -126 56 -186 26z"/>
</g>
</svg>
